<?xml version="1.0" encoding="utf-8"?>
<svg viewBox="0 0 500 500" xmlns="http://www.w3.org/2000/svg">
  <g id="SVGRepo_bgCarrier" stroke-width="0" transform="matrix(1, 0, 0, 1, 15.179091, 3.80331)"/>
  <g id="SVGRepo_tracerCarrier" stroke-linecap="round" stroke-linejoin="round" transform="matrix(1, 0, 0, 1, 15.179091, 3.80331)"/>
  <g id="SVGRepo_iconCarrier" transform="matrix(1, 0, 0, 1, 15.179091, 3.80331)">
    <g>
      <g>
        <path d="M 104.265 117.959 C 103.961 121.539 123.781 118.922 124.651 111.847 C 125.82 102.317 120.51 89.539 120.51 89.539 C 119.347 84.339 121.052 65.812 121.052 65.812 C 123.433 69.517 82.932 69.054 85.284 65.809 C 85.284 65.809 86.974 84.335 85.829 89.536 C 85.829 89.536 80.51 102.314 81.683 111.844 C 82.547 118.938 102.384 121.542 102.079 117.956 L 103.087 118.31 C 103.809 118.312 104.265 117.959 104.265 117.959 Z"/>
      </g>
    </g>
  </g>
</svg>