<?xml version="1.0" encoding="utf-8"?>
<svg viewBox="0 0 500 500" xmlns="http://www.w3.org/2000/svg">
  <g id="SVGRepo_bgCarrier" stroke-width="0" transform="matrix(1, 0, 0, 1, 62.555145, 65.972221)"/>
  <g id="SVGRepo_tracerCarrier" stroke-linecap="round" stroke-linejoin="round" transform="matrix(1, 0, 0, 1, 62.555145, 65.972221)"/>
  <g id="SVGRepo_iconCarrier" transform="matrix(1, 0, 0, 1, 62.555145, 65.972221)">
    <g>
      <g>
        <path d="M 85.284 65.809 C 85.284 65.809 93.418 33.109 84.963 34.367 C 84.963 34.367 76.588 34.449 75.449 45.796 L 75.291 62.431 C 75.291 62.431 74.682 72.284 71.369 77.566 C 71.369 77.566 69.448 80.958 69.226 88.764 C 69.226 88.764 68.663 95.38 67.923 97.438 C 67.472 98.647 65.902 100.693 64.674 102.227 C 62.266 105.22 58.219 111.467 60.384 112.18 C 60.384 112.18 62.073 112.344 64.293 107.923 C 64.293 107.923 64.247 109.616 62.466 114.548 C 62.116 115.462 60.627 120.138 63.039 118.457 C 63.039 118.457 64.156 117.69 65.608 112.88 C 65.608 112.88 64.829 120.979 65.696 121.386 C 66.829 121.941 67.447 120.339 67.958 113.251 C 67.958 113.251 68.482 110.962 68.725 119.699 C 68.737 120.15 69.398 122.397 70.321 120.479 C 71.1 118.871 70.75 114.615 70.75 113.184 C 70.75 113.184 71.749 118.706 72.683 118.706 C 72.683 118.706 73.782 119.997 73.331 113.135 C 73.258 112.014 73.651 109.713 73.7 109.043 L 73.806 106.412 C 73.806 106.412 73.532 103.398 73.532 102.143 C 73.532 101.832 74.61 97.728 77.453 93.396 C 77.453 93.396 83.366 82.908 82.985 76.054 C 82.985 76.054 82.903 69.514 85.284 65.809 Z"/>
      </g>
    </g>
  </g>
</svg>