<svg xmlns="http://www.w3.org/2000/svg" viewBox="213.65 78.18 36.4 34.37">
  <g transform="matrix(1, 0, 0, 1, 128.683411, 78.18383)">
    <g>
      <path d="M 84.963 34.367 L 121.363 34.37 C 112.912 33.112 111.736 30.382 111.736 30.382 C 109.946 27.806 110.969 22.868 110.969 22.868 C 112.454 21.66 113.027 18.453 113.027 18.453 C 115.493 16.562 115.372 13.795 114.233 13.825 C 113.319 13.849 113.526 13.092 113.526 13.092 C 115.068 0.636 104.01 0 104.01 0 L 102.322 0 C 102.322 0 91.259 0.636 92.799 13.089 C 92.799 13.089 93.006 13.847 92.084 13.822 C 90.948 13.792 90.842 16.559 93.299 18.45 C 93.299 18.45 93.871 21.656 95.357 22.865 C 95.357 22.865 96.38 27.803 94.59 30.379 C 94.59 30.379 93.418 33.109 84.963 34.367 Z"/>
    </g>
  </g>
</svg>