<?xml version="1.0" encoding="utf-8"?>
<svg width="500" height="500" fill="#999" version="1.1" id="Capa_1"
    xmlns="http://www.w3.org/2000/svg"
    xmlns:xlink="http://www.w3.org/1999/xlink" viewBox="0 0 206.326 206.326" xml:space="preserve">
  <g id="SVGRepo_iconCarrier">
    <g>
      <g>
        <path d="M 104.265 117.457 C 103.961 121.037 106.391 140.488 107.645 147.918 C 108.242 151.438 109.879 157.173 109.29 160.218 C 108.449 164.462 108.206 169.954 108.669 173.152 C 108.961 175.094 109.88 184.051 108.565 187.327 C 107.877 189.045 106.616 197.849 106.616 197.849 C 103.331 206.143 105.185 205.735 105.185 205.735 C 106.202 206.983 107.944 205.833 107.944 205.833 C 109.271 206.679 110.19 205.632 110.19 205.632 C 111.329 206.575 112.657 205.516 112.657 205.516 C 114.088 206.259 115.415 204.889 115.415 204.889 C 116.237 205.303 116.438 204.78 116.438 204.78 C 118.904 204.622 115.062 196.73 115.062 196.73 C 114.142 189.642 115.975 185.697 115.975 185.697 C 121.979 167.892 122.284 163.167 119.884 156.457 C 119.208 154.52 119.037 153.753 119.348 152.912 C 120.067 150.971 119.543 143.164 120.42 140.064 C 122.112 134.085 121.673 129.924 122.892 122.901 C 124.348 114.517 84.245 116.753 84.447 122.397 C 84.702 129.539 84.213 134.081 85.909 140.061 C 86.795 143.155 86.271 150.96 86.981 152.909 C 87.301 153.756 87.133 154.536 86.445 156.454 C 84.058 163.164 84.362 167.89 90.366 185.694 C 90.366 185.694 92.214 189.639 91.28 196.727 C 91.28 196.727 87.444 204.619 89.901 204.777 C 89.901 204.777 90.093 205.3 90.924 204.886 C 90.924 204.886 92.251 206.256 93.685 205.513 C 93.685 205.513 95.013 206.573 96.148 205.629 C 96.148 205.629 97.058 206.676 98.385 205.83 C 98.385 205.83 100.127 207.005 101.162 205.732 C 101.162 205.732 103.001 206.14 99.727 197.846 C 99.727 197.846 98.473 189.053 97.782 187.324 C 96.464 184.049 97.395 175.073 97.676 173.149 C 98.129 169.933 97.886 164.454 97.058 160.215 C 96.452 157.177 98.093 151.441 98.699 147.915 C 99.944 140.492 102.384 121.542 102.079 117.956 L 103.087 118.31 C 103.809 118.312 104.265 117.457 104.265 117.457 Z"/>
      </g>
    </g>
  </g>
</svg>