<svg xmlns="http://www.w3.org/2000/svg" viewBox="177.64 146.39 188.45 349.76">
  <g id="g-3" transform="matrix(1.641893, 0, 0, 1.208996, 67.321693, 78.352272)" style="">
    <g>
      <g style="" transform="matrix(3.015492, 0, 0, 2.835835, -188.665466, -207.651154)">
        <path d="M 104.243 105.294 C 103.971 108.911 106.152 128.564 107.277 136.071 C 107.813 139.627 109.282 145.422 108.753 148.498 C 107.999 152.786 107.78 158.335 108.195 161.566 C 108.457 163.528 109.282 172.577 108.103 175.887 C 107.485 177.623 106.354 186.518 106.354 186.518 C 103.405 194.898 105.069 194.486 105.069 194.486 C 105.982 195.747 107.545 194.585 107.545 194.585 C 108.736 195.44 109.561 194.382 109.561 194.382 C 110.583 195.335 111.775 194.265 111.775 194.265 C 113.058 195.016 114.249 193.631 114.249 193.631 C 114.988 194.049 115.168 193.521 115.168 193.521 C 117.38 193.361 113.932 185.388 113.932 185.388 C 113.108 178.227 114.753 174.241 114.753 174.241 C 120.14 156.251 120.414 151.477 118.26 144.698 C 117.654 142.741 117.501 141.966 117.779 141.117 C 118.425 139.155 117.954 131.268 118.741 128.135 C 120.26 122.095 122.357 106.948 122.899 100.019 C 123.652 90.382 83.738 91.131 84.871 100.004 C 85.789 107.194 86.249 122.091 87.771 128.132 C 88.566 131.258 88.095 139.144 88.733 141.113 C 89.019 141.969 88.869 142.757 88.251 144.695 C 86.11 151.475 86.382 156.249 91.77 174.238 C 91.77 174.238 93.429 178.224 92.591 185.384 C 92.591 185.384 89.148 193.358 91.353 193.518 C 91.353 193.518 91.525 194.047 92.272 193.628 C 92.272 193.628 93.461 195.013 94.749 194.262 C 94.749 194.262 95.941 195.333 96.959 194.379 C 96.959 194.379 97.776 195.437 98.967 194.582 C 98.967 194.582 100.53 195.769 101.458 194.483 C 101.458 194.483 103.11 194.895 100.171 186.515 C 100.171 186.515 99.046 177.631 98.425 175.885 C 97.242 172.575 98.079 163.506 98.33 161.562 C 98.737 158.313 98.519 152.778 97.776 148.495 C 97.232 145.425 98.705 139.63 99.249 136.068 C 100.366 128.568 102.556 109.421 102.282 105.799 L 103.187 106.156 C 103.835 106.158 104.243 105.294 104.243 105.294 Z" style=""/>
      </g>
    </g>
  </g>
</svg>