<svg xmlns="http://www.w3.org/2000/svg" viewBox="253.59 118.86 30.16 88.15">
  <g id="g-4" transform="matrix(1, 0, 0, 1, 137.19426, 85.527504)">
    <g>
      <g>
        <path d="M 119.864 33.37 C 111.413 32.112 121.052 65.812 121.052 65.812 C 123.433 69.517 123.342 76.057 123.342 76.057 C 122.964 82.916 128.883 93.399 128.883 93.399 C 131.727 97.731 132.804 101.841 132.804 102.146 C 132.804 103.394 132.531 106.415 132.531 106.415 L 132.64 109.046 C 132.689 109.716 133.066 112.023 133.005 113.138 C 132.561 120 133.651 118.709 133.651 118.709 C 134.571 118.709 135.582 113.187 135.582 113.187 C 135.582 114.611 135.234 118.874 136.002 120.482 C 136.921 122.4 137.597 120.153 137.609 119.702 C 137.852 110.965 138.377 113.254 138.377 113.254 C 138.888 120.342 139.516 121.943 140.642 121.389 C 141.495 120.982 140.715 112.883 140.715 112.883 C 142.176 117.694 143.284 118.46 143.284 118.46 C 145.695 120.153 144.204 115.477 143.869 114.551 C 142.085 109.631 142.03 107.926 142.03 107.926 C 144.259 112.347 145.939 112.183 145.939 112.183 C 148.113 111.489 144.039 105.229 141.652 102.23 C 140.434 100.702 138.863 98.656 138.407 97.441 C 137.664 95.383 137.103 88.767 137.103 88.767 C 136.878 80.96 134.948 77.569 134.948 77.569 C 131.648 72.287 131.027 62.434 131.027 62.434 L 130.881 45.799 C 129.724 34.452 119.864 33.37 119.864 33.37 Z"/>
      </g>
    </g>
  </g>
</svg>